<svg width="16" height="16" viewBox="0 0 16 16" fill="none" xmlns="http://www.w3.org/2000/svg">
<path fill-rule="evenodd" clip-rule="evenodd" d="M2.46334 4.15365C2.46334 4.3998 2.24796 4.61518 2.0018 4.61518H1.07873C0.832572 4.61518 0.617188 4.3998 0.617188 4.15365V3.23058C0.617188 2.98443 0.832572 2.76904 1.07873 2.76904H2.0018C2.24796 2.76904 2.46334 2.98443 2.46334 3.23058V4.15365ZM15.3864 3.23058C15.3864 2.98443 15.1711 2.76904 14.9249 2.76904H4.15566C3.9095 2.76904 3.69412 2.98443 3.69412 3.23058V4.15365C3.69412 4.3998 3.9095 4.61518 4.15566 4.61518H14.9249C15.1711 4.61518 15.3864 4.3998 15.3864 4.15365V3.23058ZM2.46334 7.53822C2.46334 7.29207 2.24796 7.07668 2.0018 7.07668H1.07873C0.832572 7.07668 0.617188 7.29207 0.617188 7.53822V8.46129C0.617188 8.70744 0.832572 8.92282 1.07873 8.92282H2.0018C2.24796 8.92282 2.46334 8.70744 2.46334 8.46129V7.53822ZM14.1557 7.53822C14.1557 7.29207 13.9403 7.07668 13.6941 7.07668H4.15566C3.9095 7.07668 3.69412 7.29207 3.69412 7.53822V8.46129C3.69412 8.70744 3.9095 8.92282 4.15566 8.92282H13.6941C13.9403 8.92282 14.1557 8.70744 14.1557 8.46129V7.53822ZM2.46334 11.8461C2.46334 11.5999 2.24796 11.3845 2.0018 11.3845H1.07873C0.832572 11.3845 0.617188 11.5999 0.617188 11.8461V12.7691C0.617188 13.0153 0.832572 13.2307 1.07873 13.2307H2.0018C2.24796 13.2307 2.46334 13.0153 2.46334 12.7691V11.8461ZM15.3864 11.8461C15.3864 11.5999 15.1711 11.3845 14.9249 11.3845H4.15566C3.9095 11.3845 3.69412 11.5999 3.69412 11.8461V12.7691C3.69412 13.0153 3.9095 13.2307 4.15566 13.2307H14.9249C15.1711 13.2307 15.3864 13.0153 15.3864 12.7691V11.8461Z" fill="#2E3643" fill-opacity="0.7"/>
</svg>
