<svg width="16" height="16" viewBox="0 0 16 16" fill="none" xmlns="http://www.w3.org/2000/svg">
<path fill-rule="evenodd" clip-rule="evenodd" d="M12.6145 5.84604C12.6145 3.99989 11.1376 2.46143 9.38371 2.46143H4.30679C3.96833 2.46143 3.69141 2.73835 3.69141 3.07681V13.2307C3.69141 13.5691 3.96833 13.846 4.30679 13.846H9.38371C11.1376 13.846 12.6145 12.3076 12.6145 10.4614C12.6145 9.56912 12.276 8.76912 11.7222 8.15373C12.276 7.53835 12.6145 6.73835 12.6145 5.84604ZM9.38371 11.6922H5.84525V9.23071H9.38371C9.96832 9.23071 10.4914 9.81532 10.4914 10.4615C10.4914 11.1076 9.96832 11.6922 9.38371 11.6922ZM9.38371 7.0768H5.84525V4.61526H9.38371C9.96832 4.61526 10.4914 5.19988 10.4914 5.84603C10.4914 6.49219 9.96832 7.0768 9.38371 7.0768Z" fill="#2E3643" fill-opacity="0.7"/>
</svg>
