<svg width="32" height="32" viewBox="0 0 32 32" fill="none" xmlns="http://www.w3.org/2000/svg">
<rect width="32" height="32" rx="6" fill="#2E3643" fill-opacity="0.02"/>
<rect x="0.5" y="0.5" width="31" height="31" rx="5.5" stroke="#2E3643" stroke-opacity="0.1"/>
<path d="M16.9231 15.9975C16.9231 16.1801 16.8689 16.3586 16.7675 16.5104C16.6661 16.6622 16.5219 16.7805 16.3532 16.8504C16.1846 16.9203 15.999 16.9385 15.8199 16.9029C15.6409 16.8673 15.4764 16.7794 15.3473 16.6503C15.2182 16.5212 15.1303 16.3567 15.0947 16.1776C15.059 15.9985 15.0773 15.8129 15.1472 15.6442C15.2171 15.4755 15.3354 15.3313 15.4872 15.2299C15.639 15.1285 15.8174 15.0743 16 15.0743C16.2448 15.0743 16.4796 15.1716 16.6527 15.3447C16.8258 15.5178 16.9231 15.7526 16.9231 15.9975ZM12.6154 15.0743C12.4328 15.0743 12.2543 15.1285 12.1026 15.2299C11.9508 15.3313 11.8324 15.4755 11.7626 15.6442C11.6927 15.8129 11.6744 15.9985 11.71 16.1776C11.7457 16.3567 11.8336 16.5212 11.9627 16.6503C12.0918 16.7794 12.2562 16.8673 12.4353 16.9029C12.6144 16.9385 12.8 16.9203 12.9686 16.8504C13.1373 16.7805 13.2815 16.6622 13.3829 16.5104C13.4843 16.3586 13.5385 16.1801 13.5385 15.9975C13.5385 15.7526 13.4412 15.5178 13.2681 15.3447C13.095 15.1716 12.8602 15.0743 12.6154 15.0743ZM19.3846 15.0743C19.202 15.0743 19.0236 15.1285 18.8718 15.2299C18.72 15.3313 18.6017 15.4755 18.5318 15.6442C18.4619 15.8129 18.4437 15.9985 18.4793 16.1776C18.5149 16.3567 18.6028 16.5212 18.7319 16.6503C18.861 16.7794 19.0255 16.8673 19.2045 16.9029C19.3836 16.9385 19.5692 16.9203 19.7379 16.8504C19.9065 16.7805 20.0507 16.6622 20.1521 16.5104C20.2536 16.3586 20.3077 16.1801 20.3077 15.9975C20.3077 15.7526 20.2104 15.5178 20.0373 15.3447C19.8642 15.1716 19.6294 15.0743 19.3846 15.0743ZM24 15.9975C24.0003 17.3788 23.643 18.7367 22.9629 19.9389C22.2828 21.1411 21.303 22.1468 20.119 22.858C18.935 23.5692 17.587 23.9617 16.2063 23.9973C14.8255 24.033 13.4591 23.7105 12.24 23.0612L9.62077 23.9344C9.40391 24.0067 9.1712 24.0172 8.94871 23.9647C8.72623 23.9122 8.52276 23.7988 8.36112 23.6371C8.19947 23.4754 8.08604 23.272 8.03354 23.0494C7.98103 22.8269 7.99153 22.5942 8.06385 22.3773L8.93692 19.7578C8.36627 18.6848 8.04754 17.4959 8.00492 16.2813C7.96231 15.0667 8.19693 13.8584 8.69098 12.748C9.18503 11.6377 9.92552 10.6545 10.8562 9.87305C11.787 9.09162 12.8835 8.53252 14.0625 8.23818C15.2416 7.94385 16.4722 7.92201 17.6609 8.17433C18.8496 8.42664 19.9653 8.94649 20.9231 9.6944C21.881 10.4423 22.6559 11.3986 23.189 12.4908C23.7222 13.5829 23.9995 14.7821 24 15.9975ZM22.7692 15.9975C22.7689 14.959 22.5298 13.9345 22.0702 13.0033C21.6107 12.0721 20.9431 11.2591 20.1191 10.6271C19.2951 9.99524 18.3368 9.56139 17.3183 9.35915C16.2998 9.15691 15.2484 9.19171 14.2456 9.46086C13.2427 9.73 12.3151 10.2263 11.5347 10.9113C10.7543 11.5963 10.1419 12.4517 9.74497 13.4113C9.348 14.3709 9.17709 15.4089 9.24546 16.4451C9.31382 17.4813 9.61963 18.4879 10.1392 19.387C10.1828 19.4625 10.2099 19.5464 10.2187 19.6331C10.2274 19.7199 10.2177 19.8075 10.19 19.8902L9.23077 22.7674L12.1077 21.808C12.1704 21.7867 12.2361 21.7758 12.3023 21.7757C12.4104 21.7759 12.5165 21.8046 12.61 21.8588C13.6391 22.4543 14.8068 22.7682 15.9957 22.7689C17.1846 22.7697 18.3528 22.4573 19.3826 21.8631C20.4124 21.2689 21.2676 20.414 21.8621 19.3843C22.4566 18.3546 22.7695 17.1865 22.7692 15.9975Z" fill="#FB4E0B"/>
<rect x="16" y="18" width="8" height="8" rx="4" fill="#FBFBFB"/>
<path d="M22.25 21.25H20.75V19.75C20.75 19.5511 20.671 19.3603 20.5303 19.2197C20.3897 19.079 20.1989 19 20 19C19.8011 19 19.6103 19.079 19.4697 19.2197C19.329 19.3603 19.25 19.5511 19.25 19.75V21.25H17.75C17.5511 21.25 17.3603 21.329 17.2197 21.4697C17.079 21.6103 17 21.8011 17 22C17 22.1989 17.079 22.3897 17.2197 22.5303C17.3603 22.671 17.5511 22.75 17.75 22.75H19.25V24.25C19.25 24.4489 19.329 24.6397 19.4697 24.7803C19.6103 24.921 19.8011 25 20 25C20.1989 25 20.3897 24.921 20.5303 24.7803C20.671 24.6397 20.75 24.4489 20.75 24.25V22.75H22.25C22.4489 22.75 22.6397 22.671 22.7803 22.5303C22.921 22.3897 23 22.1989 23 22C23 21.8011 22.921 21.6103 22.7803 21.4697C22.6397 21.329 22.4489 21.25 22.25 21.25Z" fill="#FB4E0B"/>
</svg>
