<svg width="16" height="16" viewBox="0 0 16 16" fill="none" xmlns="http://www.w3.org/2000/svg">
<path fill-rule="evenodd" clip-rule="evenodd" d="M14.7689 2.00011C14.7689 1.75396 14.5535 1.53857 14.3074 1.53857H1.69201C1.44585 1.53857 1.23047 1.75396 1.23047 2.00011V2.92319C1.23047 3.16934 1.44585 3.38473 1.69201 3.38473H14.3074C14.5535 3.38473 14.7689 3.16934 14.7689 2.92319V2.00011ZM12.9228 5.69249C12.9228 5.44633 12.7074 5.23095 12.4613 5.23095H3.53818C3.29203 5.23095 3.07664 5.44633 3.07664 5.69249V6.61556C3.07664 6.86172 3.29203 7.0771 3.53818 7.0771H12.4613C12.7074 7.0771 12.9228 6.86172 12.9228 6.61556V5.69249ZM12.3074 13.077C12.3074 12.8309 12.092 12.6155 11.8458 12.6155H4.15351C3.90736 12.6155 3.69197 12.8309 3.69197 13.077V14.0001C3.69197 14.2463 3.90736 14.4616 4.15351 14.4616H11.8458C12.092 14.4616 12.3074 14.2463 12.3074 14.0001V13.077ZM14.7689 9.38464C14.7689 9.13848 14.5535 8.9231 14.3074 8.9231H1.69201C1.44585 8.9231 1.23047 9.13848 1.23047 9.38464V10.3077C1.23047 10.5539 1.44585 10.7693 1.69201 10.7693H14.3074C14.5535 10.7693 14.7689 10.5539 14.7689 10.3077V9.38464Z" fill="#2E3643" fill-opacity="0.7"/>
</svg>
