<svg width="16" height="16" viewBox="0 0 16 16" fill="none" xmlns="http://www.w3.org/2000/svg">
<path fill-rule="evenodd" clip-rule="evenodd" d="M11.6932 3.78443V3.38443C11.6932 3.04597 11.4163 2.76904 11.0778 2.76904H6.77013C6.43167 2.76904 6.15475 3.04597 6.15475 3.38443V3.99981C6.15475 4.33827 6.43167 4.6152 6.77013 4.6152C7.29321 4.6152 7.69321 5.1075 7.57013 5.59981L6.46244 11.0152C6.37013 11.4152 6.03167 11.6921 5.66244 11.6921H4.92398C4.58552 11.6921 4.30859 11.969 4.30859 12.3075V12.9229C4.30859 13.2614 4.58552 13.5383 4.92398 13.5383H9.23167C9.57013 13.5383 9.84705 13.2614 9.84705 12.9229V12.3075C9.84705 11.969 9.57013 11.6921 9.23167 11.6921C8.70859 11.6921 8.30859 11.1998 8.43167 10.7075L9.53936 5.29212C9.63167 4.89212 9.97013 4.6152 10.3394 4.6152H10.8624C11.324 4.6152 11.6932 4.24597 11.6932 3.78443Z" fill="#2E3643" fill-opacity="0.7"/>
</svg>
