<svg width="16" height="16" viewBox="0 0 16 16" fill="none" xmlns="http://www.w3.org/2000/svg">
<path fill-rule="evenodd" clip-rule="evenodd" d="M16 3.53828C16 3.29212 15.7846 3.07674 15.5385 3.07674H10.3077C10.0616 3.07674 9.84618 3.29212 9.84618 3.53828V4.46135C9.84618 4.70751 10.0616 4.92289 10.3077 4.92289H15.5385C15.7846 4.92289 16 4.70751 16 4.46135V3.53828ZM14.7692 10.923C14.7692 10.6768 14.5539 10.4614 14.3077 10.4614H10.3077C10.0616 10.4614 9.84618 10.6768 9.84618 10.923V11.8461C9.84618 12.0922 10.0616 12.3076 10.3077 12.3076H14.3077C14.5539 12.3076 14.7692 12.0922 14.7692 11.8461V10.923ZM16 7.23162C16 6.98547 15.7846 6.77008 15.5385 6.77008H10.3077C10.0616 6.77008 9.84618 6.98547 9.84618 7.23162V8.1547C9.84618 8.40085 10.0616 8.61623 10.3077 8.61623H15.5385C15.7846 8.61623 16 8.40085 16 8.1547V7.23162ZM8.61551 1.6925C8.61551 1.44634 8.40013 1.23096 8.15398 1.23096H7.2309C6.98475 1.23096 6.76936 1.44634 6.76936 1.6925V14.3079C6.76936 14.554 6.98475 14.7694 7.2309 14.7694H8.15398C8.40013 14.7694 8.61551 14.554 8.61551 14.3079V1.6925ZM2.8923 4.70711C2.70769 4.5225 2.46153 4.67634 2.46153 4.98404V6.76865H0.461537C0.215384 6.76865 0 6.98404 0 7.23019V8.15327C0 8.39942 0.215384 8.6148 0.461537 8.6148H2.46153V10.4302C2.46153 10.7379 2.73846 10.8917 2.8923 10.7071L5.44614 7.93788C5.53845 7.81481 5.53845 7.63019 5.44614 7.50711L2.8923 4.70711Z" fill="#2E3643" fill-opacity="0.7"/>
</svg>
