<svg width="16" height="16" viewBox="0 0 16 16" fill="none" xmlns="http://www.w3.org/2000/svg">
<path fill-rule="evenodd" clip-rule="evenodd" d="M14.7689 2.0001C14.7689 1.75396 14.5535 1.53857 14.3074 1.53857H1.69201C1.44585 1.53857 1.23047 1.75396 1.23047 2.0001V2.92317C1.23047 3.16931 1.44585 3.3847 1.69201 3.3847H14.3074C14.5535 3.3847 14.7689 3.16931 14.7689 2.92317V2.0001ZM12.3074 5.69239C12.3074 5.44624 12.092 5.23086 11.8459 5.23086H1.69201C1.44585 5.23086 1.23047 5.44624 1.23047 5.69239V6.61545C1.23047 6.8616 1.44585 7.07698 1.69201 7.07698H11.8459C12.092 7.07698 12.3074 6.8616 12.3074 6.61545V5.69239ZM12.3074 13.0771C12.3074 12.8309 12.092 12.6155 11.8459 12.6155H1.69201C1.44585 12.6155 1.23047 12.8309 1.23047 13.0771V14.0001C1.23047 14.2463 1.44585 14.4617 1.69201 14.4617H11.8459C12.092 14.4617 12.3074 14.2463 12.3074 14.0001V13.0771ZM14.7689 9.38478C14.7689 9.13863 14.5535 8.92325 14.3074 8.92325H1.69201C1.44585 8.92325 1.23047 9.13863 1.23047 9.38478V10.3078C1.23047 10.554 1.44585 10.7694 1.69201 10.7694H14.3074C14.5535 10.7694 14.7689 10.554 14.7689 10.3078V9.38478Z" fill="#2E3643" fill-opacity="0.7"/>
</svg>
