<svg width="16" height="16" viewBox="0 0 16 16" fill="none" xmlns="http://www.w3.org/2000/svg">
<path fill-rule="evenodd" clip-rule="evenodd" d="M15.3862 2.00015V2.92322C15.3862 3.16937 15.1708 3.38475 14.9246 3.38475H6.61701C6.37086 3.38475 6.15548 3.16937 6.15548 2.92322V2.00015C6.15548 1.754 6.37086 1.53862 6.61701 1.53862H14.9246C15.1708 1.53862 15.3862 1.754 15.3862 2.00015ZM6.61701 6.46174H12.1554C12.4016 6.46174 12.617 6.24636 12.617 6.00021V5.07714C12.617 4.83099 12.4016 4.61561 12.1554 4.61561H6.61701C6.37086 4.61561 6.15548 4.83099 6.15548 5.07714V6.00021C6.15548 6.24636 6.37086 6.46174 6.61701 6.46174ZM14.9248 9.2309H6.61721C6.37106 9.2309 6.15567 9.44628 6.15567 9.69243V10.6155C6.15567 10.8617 6.37106 11.077 6.61721 11.077H14.9248C15.171 11.077 15.3864 10.8617 15.3864 10.6155V9.69243C15.3864 9.44628 15.171 9.2309 14.9248 9.2309ZM12.1554 12.3077H6.61701C6.37086 12.3077 6.15548 12.5231 6.15548 12.7692V13.6923C6.15548 13.9384 6.37086 14.1538 6.61701 14.1538H12.1554C12.4016 14.1538 12.617 13.9384 12.617 13.6923V12.7692C12.617 12.5231 12.4016 12.3077 12.1554 12.3077ZM1.07872 2.46171H1.84795V6.30782C1.84795 6.55398 2.06333 6.76936 2.30948 6.76936H2.61717C2.86332 6.76936 3.07871 6.55398 3.07871 6.30782V1.84633C3.07871 1.50788 2.80179 1.23096 2.46333 1.23096H1.07872C0.83257 1.23096 0.617188 1.44634 0.617188 1.69249V2.00018C0.617188 2.24633 0.83257 2.46171 1.07872 2.46171ZM3.69409 8.61558H1.07872C0.832571 8.61558 0.617188 8.83096 0.617188 9.07711V9.3848C0.617188 9.63095 0.832571 9.84634 1.07872 9.84634H3.07871V11.0771H1.23257C0.894109 11.0771 0.617188 11.354 0.617188 11.6925V14.154C0.617188 14.4924 0.894109 14.7694 1.23257 14.7694H3.84793C4.09408 14.7694 4.30947 14.554 4.30947 14.3078V14.0001C4.30947 13.754 4.09408 13.5386 3.84793 13.5386H1.84795V12.3078H3.69409C4.03255 12.3078 4.30947 12.0309 4.30947 11.6925V9.23096C4.30947 8.8925 4.03255 8.61558 3.69409 8.61558Z" fill="#2E3643" fill-opacity="0.7"/>
</svg>
