<svg width="16" height="16" viewBox="0 0 16 16" fill="none" xmlns="http://www.w3.org/2000/svg">
<path fill-rule="evenodd" clip-rule="evenodd" d="M5.04654 6.76927H3.0773V4.95388C3.0773 4.64619 2.80037 4.49235 2.64653 4.67696L0.0926686 7.44619C0.000360459 7.56927 0.000360459 7.75388 0.0926686 7.87696L2.64653 10.6462C2.83114 10.8308 3.0773 10.677 3.0773 10.3693V8.61542H5.04654C5.29269 8.61542 5.53885 8.40004 5.53885 8.15388V7.23081C5.53885 6.98465 5.29269 6.76927 5.04654 6.76927ZM16.0004 3.53828C16.0004 3.29212 15.785 3.07674 15.5388 3.07674H10.308C10.0619 3.07674 9.84648 3.29212 9.84648 3.53828V4.46135C9.84648 4.70751 10.0619 4.92289 10.308 4.92289H15.5388C15.785 4.92289 16.0004 4.70751 16.0004 4.46135V3.53828ZM14.7696 10.923C14.7696 10.6768 14.5542 10.4614 14.308 10.4614H10.308C10.0619 10.4614 9.84648 10.6768 9.84648 10.923V11.8461C9.84648 12.0922 10.0619 12.3076 10.308 12.3076H14.308C14.5542 12.3076 14.7696 12.0922 14.7696 11.8461V10.923ZM16.0004 7.23162C16.0004 6.98547 15.785 6.77008 15.5388 6.77008H10.308C10.0619 6.77008 9.84648 6.98547 9.84648 7.23162V8.1547C9.84648 8.40085 10.0619 8.61623 10.308 8.61623H15.5388C15.785 8.61623 16.0004 8.40085 16.0004 8.1547V7.23162ZM8.6158 1.6925C8.6158 1.44634 8.40042 1.23096 8.15426 1.23096H7.23118C6.98503 1.23096 6.76964 1.44634 6.76964 1.6925V14.3079C6.76964 14.554 6.98503 14.7694 7.23118 14.7694H8.15426C8.40042 14.7694 8.6158 14.554 8.6158 14.3079V1.6925Z" fill="#2E3643" fill-opacity="0.7"/>
</svg>
