<svg width="16" height="16" viewBox="0 0 16 16" fill="none" xmlns="http://www.w3.org/2000/svg">
<path fill-rule="evenodd" clip-rule="evenodd" d="M14.3074 1.53857H1.69201C1.44585 1.53857 1.23047 1.75396 1.23047 2.00011V2.92319C1.23047 3.16935 1.44585 3.38473 1.69201 3.38473H14.3074C14.5535 3.38473 14.7689 3.16935 14.7689 2.92319V2.00011C14.7689 1.75396 14.5535 1.53857 14.3074 1.53857ZM14.3074 5.23093H4.15351C3.90736 5.23093 3.69197 5.44632 3.69197 5.69247V6.61555C3.69197 6.8617 3.90736 7.07709 4.15351 7.07709H14.3074C14.5535 7.07709 14.7689 6.8617 14.7689 6.61555V5.69247C14.7689 5.44632 14.5535 5.23093 14.3074 5.23093ZM14.3074 12.6154H4.15351C3.90736 12.6154 3.69197 12.8308 3.69197 13.077V14.0001C3.69197 14.2462 3.90736 14.4616 4.15351 14.4616H14.3074C14.5535 14.4616 14.7689 14.2462 14.7689 14.0001V13.077C14.7689 12.8308 14.5535 12.6154 14.3074 12.6154ZM14.3074 8.92309H1.69201C1.44585 8.92309 1.23047 9.13848 1.23047 9.38463V10.3077C1.23047 10.5539 1.44585 10.7692 1.69201 10.7692H14.3074C14.5535 10.7692 14.7689 10.5539 14.7689 10.3077V9.38463C14.7689 9.13848 14.5535 8.92309 14.3074 8.92309Z" fill="#2E3643" fill-opacity="0.7"/>
</svg>
