<svg width="12" height="12" viewBox="0 0 12 12" fill="none" xmlns="http://www.w3.org/2000/svg">
<path fill-rule="evenodd" clip-rule="evenodd" d="M1.97645 5.82427C1.86397 5.71175 1.80078 5.55917 1.80078 5.40007C1.80078 5.24097 1.86397 5.08838 1.97645 4.97587L5.57645 1.37587C5.68897 1.26338 5.84155 1.2002 6.00065 1.2002C6.15975 1.2002 6.31234 1.26338 6.42485 1.37587L10.0249 4.97587C10.1341 5.08903 10.1946 5.24059 10.1933 5.39791C10.1919 5.55523 10.1288 5.70571 10.0175 5.81696C9.9063 5.9282 9.75581 5.9913 9.59849 5.99267C9.44118 5.99404 9.28961 5.93356 9.17645 5.82427L6.60065 3.24847V10.2001C6.60065 10.3592 6.53744 10.5118 6.42492 10.6243C6.3124 10.7369 6.15978 10.8001 6.00065 10.8001C5.84152 10.8001 5.68891 10.7369 5.57639 10.6243C5.46387 10.5118 5.40065 10.3592 5.40065 10.2001V3.24847L2.82485 5.82427C2.71234 5.93675 2.55975 5.99994 2.40065 5.99994C2.24155 5.99994 2.08897 5.93675 1.97645 5.82427Z" fill="white"/>
</svg>
