<svg width="16" height="16" viewBox="0 0 16 16" fill="none" xmlns="http://www.w3.org/2000/svg">
<path fill-rule="evenodd" clip-rule="evenodd" d="M3.72483 5.56294C3.66329 5.25563 3.63252 4.88686 3.63252 4.51809C3.63252 4.11858 3.72483 3.65762 3.90945 3.22738C4.09406 2.76641 4.37098 2.33618 4.77098 1.9674C5.14022 1.59863 5.66329 1.26059 6.24791 1.01474C6.86329 0.76889 7.57098 0.615234 8.43252 0.615234C9.20175 0.615234 9.94022 0.707428 10.6479 0.922546C11.2018 1.10693 11.7248 1.41424 12.1864 1.84448C12.371 2.02887 12.371 2.33618 12.1556 2.52056L11.3248 3.28884C11.1402 3.4425 10.8633 3.47323 10.6787 3.28884C10.4633 3.07372 10.2171 2.88934 9.94022 2.73568C9.50945 2.52056 9.01714 2.39764 8.43252 2.39764C7.90945 2.39764 7.44791 2.4591 7.10945 2.61276C6.77098 2.76641 6.46329 2.92007 6.24791 3.16592C6.03252 3.41177 5.87868 3.62688 5.78637 3.87273C5.69406 4.11858 5.66329 4.36443 5.66329 4.54882C5.66329 4.88686 5.72483 5.16344 5.81714 5.40929C5.90945 5.62441 5.7556 5.83952 5.54022 5.83952H4.03252C3.87868 5.83952 3.7556 5.68587 3.72483 5.56294ZM12.2789 10.1425H10.7404C10.525 10.1425 10.3712 10.3576 10.4635 10.542C10.5558 10.7264 10.5866 10.9722 10.5866 11.2181C10.5866 11.5868 10.4943 11.9249 10.3404 12.2322C10.1558 12.5395 9.94042 12.7546 9.6635 12.9697C9.38658 13.1541 9.07889 13.3078 8.74042 13.4C8.40196 13.4922 8.09427 13.5536 7.75581 13.5536C7.17119 13.5536 6.61735 13.4307 6.09427 13.1849C5.69427 13.0005 5.35581 12.7546 5.04812 12.4166C4.89427 12.2322 4.58658 12.2015 4.40196 12.3551L3.54042 13.0927C3.35581 13.2463 3.32504 13.5536 3.50965 13.738C3.94042 14.2297 4.49427 14.5985 5.14042 14.8443C5.94042 15.1517 6.80196 15.3053 7.72504 15.3053C8.40196 15.3053 9.04812 15.2131 9.63273 14.998C10.2173 14.8136 10.7404 14.5063 11.202 14.1375C11.6327 13.7688 12.002 13.3078 12.2481 12.7546C12.4943 12.2015 12.6481 11.6176 12.6481 10.9415C12.6481 10.6956 12.6481 10.542 12.6173 10.3269C12.5558 10.2654 12.4327 10.1425 12.2789 10.1425ZM15.3556 7.34463C15.2941 7.16024 15.1095 7.06805 14.9249 7.06805H1.07873C0.863341 7.06805 0.709495 7.16024 0.647957 7.34463C0.617187 7.40609 0.617188 7.43682 0.617188 7.49829V8.42022C0.617188 8.66607 0.832572 8.91192 1.07873 8.91192H14.9249C15.171 8.91192 15.3864 8.66607 15.3864 8.42022V7.49829C15.3864 7.43682 15.3864 7.40609 15.3556 7.34463Z" fill="#747474"/>
</svg>
