<svg width="16" height="16" viewBox="0 0 16 16" fill="none" xmlns="http://www.w3.org/2000/svg">
<path fill-rule="evenodd" clip-rule="evenodd" d="M13.6938 12.9232H2.30919C2.06304 12.9232 1.84766 13.1385 1.84766 13.3847V14.3077C1.84766 14.5538 2.06304 14.7691 2.30919 14.7691H13.6938C13.94 14.7691 14.1553 14.5538 14.1553 14.3077V13.3847C14.1553 13.1385 13.94 12.9232 13.6938 12.9232ZM7.78614 11.6914C5.47845 11.5683 3.69383 9.56848 3.69383 7.26099V3.07675C3.69383 2.73832 3.97076 2.46143 4.30922 2.46143H4.9246C5.26306 2.46143 5.53999 2.73832 5.53999 3.07675V7.29176C5.53999 8.61472 6.5246 9.75308 7.84768 9.84538C9.29383 9.93767 10.4631 8.79932 10.4631 7.38406V3.07675C10.4631 2.73832 10.74 2.46143 11.0784 2.46143H11.6938C12.0323 2.46143 12.3092 2.73832 12.3092 3.07675V7.38406C12.3092 9.84538 10.2477 11.8144 7.78614 11.6914Z" fill="#747474"/>
</svg>
